<?xml version="1.0" encoding="UTF-8"?><svg width="24px" height="24px" viewBox="0 0 24 24" stroke-width="1.5" fill="none" xmlns="http://www.w3.org/2000/svg"><g transform="translate(0,-4)"><path d="M12 13C13.1046 13 14 12.1046 14 11C14 9.89543 13.1046 9 12 9C10.8954 9 10 9.89543 10 11C10 12.1046 10.8954 13 12 13Z" stroke="currentColor" stroke-width="1.5" stroke-linecap="round" stroke-linejoin="round"></path><path d="M10.076 16.2827L10.8906 15.7396C11.5624 15.2917 12.4376 15.2917 13.1094 15.7396L13.924 16.2827C14.5789 16.7192 14.9168 17.4993 14.7874 18.2756L14.2785 21.3288C14.1178 22.2932 13.2834 23 12.3057 23H11.6943C10.7166 23 9.8822 22.2932 9.72147 21.3288L9.2126 18.2756C9.08321 17.4993 9.42114 16.7192 10.076 16.2827Z" stroke="currentColor" stroke-width="1.5" stroke-linecap="round" stroke-linejoin="round"></path></g></svg>
