<?xml version="1.0" encoding="UTF-8" standalone="no"?>
<!-- Created with Inkscape (http://www.inkscape.org/) -->

<svg
   width="200.10001mm"
   height="221.05486mm"
   viewBox="0 0 200.10001 221.05486"
   version="1.1"
   id="svg5"
   xml:space="preserve"
   xmlns="http://www.w3.org/2000/svg"
   xmlns:svg="http://www.w3.org/2000/svg"><defs
     id="defs2"><clipPath
       clipPathUnits="userSpaceOnUse"
       id="clipPath12481"><path
         id="path12483"
         style="font-variation-settings:normal;opacity:1;vector-effect:none;fill:#000000;fill-opacity:1;stroke-width:3.77953;stroke-linecap:butt;stroke-linejoin:miter;stroke-miterlimit:4;stroke-dasharray:none;stroke-dashoffset:0;stroke-opacity:1;-inkscape-stroke:none;stop-color:#000000;stop-opacity:1"
         d="m 83.689454,157.51953 v 635.17189 h 59.962896 c 1.74224,-9.1925 3.27595,-18.42532 4.87109,-27.64454 0.94107,-5.59746 1.88823,-11.19458 2.94531,-16.77148 0.27241,-1.39034 0.56003,-2.77311 0.63672,-4.18945 0.045,-2.25317 0.14757,-4.49711 0.4082,-6.73633 0.23128,-1.65785 0.48334,-3.312 0.66211,-4.97656 0.0638,-0.63946 0.0345,-0.33337 0.0898,-0.92188 0.60107,-6.3867 3.94573,-9.49403 7.19726,-9.58984 3.68508,-0.10863 7.25116,3.6507 6.56641,10.88867 -0.0666,0.70439 -0.0312,0.33557 -0.10938,1.11328 -0.18738,1.71708 -0.42944,3.42585 -0.67968,5.13477 -0.25032,1.98764 -0.25878,3.9847 -0.33985,5.98437 -0.13914,1.97779 -0.43702,3.92915 -0.84961,5.86914 -1.04369,5.50424 -1.97653,11.0263 -2.90625,16.55078 -1.0218,5.90555 -2.04347,11.81157 -3.07812,17.71485 -0.32001,1.82587 -0.83981,4.79476 -1.33789,7.57422 h 3.10351 c 0.35442,-0.49962 0.72756,-0.94792 1.11524,-1.3418 0.69982,-1.86384 1.40557,-3.72688 2.12304,-5.58399 0.33659,-0.86116 0.67211,-1.72128 1.00977,-2.58203 1.1239,-2.86495 3.35583,-9.62399 7.75977,-9.55078 0.72064,0.012 1.50019,0.20803 2.34179,0.63281 3.2704,1.65067 3.46068,6.45682 5.19141,9.68555 -0.74646,2.92091 -1.52845,5.83211 -2.32422,8.74024 H 699.59962 V 157.51953 Z" /></clipPath><clipPath
       clipPathUnits="userSpaceOnUse"
       id="clipPath12625"><path
         id="path12627"
         style="font-variation-settings:normal;opacity:1;vector-effect:none;fill:#000000;fill-opacity:1;stroke-width:1;stroke-linecap:butt;stroke-linejoin:miter;stroke-miterlimit:4;stroke-dasharray:none;stroke-dashoffset:0;stroke-opacity:1;-inkscape-stroke:none;stop-color:#000000;stop-opacity:1"
         d="M 22.075138,82.170177 V 221.7167 h 12.876733 c -0.144042,-0.54503 -0.09877,-1.25532 0.240297,-2.0898 0.344583,-0.84796 0.790168,-1.64954 1.2392,-2.44532 0.212865,-0.3516 0.415362,-0.70862 0.610299,-1.06971 -0.552069,-0.46142 -0.883587,-1.38243 -0.633553,-2.69492 0.07171,-0.3764 0.134813,-0.75524 0.258381,-1.11931 0.216189,-0.5889 0.475523,-1.15958 0.742591,-1.72703 0.343715,-0.77058 0.641998,-1.55948 0.946713,-2.34611 0.277606,-0.75219 0.544563,-1.51106 0.728636,-2.29237 0.01619,-0.0676 0.03328,-0.13503 0.04961,-0.20257 -0.19344,-1.0095 -0.285253,-2.03356 -0.387057,-3.05511 -0.08617,-0.81237 -0.158895,-1.62604 -0.179832,-2.44274 -0.04698,-1.15568 0.316595,-2.16773 0.759643,-3.21169 0.381368,-0.85484 0.811342,-1.68568 1.28261,-2.49339 -1.471766,0.12143 -2.353347,-1.53175 -0.811837,-3.49643 0.0067,-0.0155 0.01622,-0.0365 0.03204,-0.0687 0.02877,-0.0587 0.05551,-0.11845 0.08423,-0.17725 0.0805,-0.15831 0.127979,-0.28179 0.20102,-0.43563 -0.0016,0.003 -0.0021,0.002 -5.29e-4,-0.004 0.03648,-0.13494 0.115662,-0.26581 0.168981,-0.39532 0.0348,-0.13163 0.09442,-0.25869 0.133326,-0.38964 0.10463,-0.28127 0.230341,-0.5536 0.341064,-0.83251 0.07367,-0.18568 0.151088,-0.37045 0.204124,-0.56327 0.01942,-0.16862 -0.03422,0.24595 0.02532,-0.21963 0.03629,-0.22828 0.05476,-0.45851 0.08217,-0.68781 0.03797,-0.25435 0.07851,-0.50812 0.129706,-0.76016 0.04302,-0.20715 0.116224,-0.40641 0.165365,-0.61185 0.0029,-0.0127 0.0059,-0.0254 0.0088,-0.0382 0.356166,-1.54357 1.241158,-2.25191 2.054656,-2.26498 1.045925,-0.0168 1.973665,1.11556 1.506884,3.098 -0.0062,0.0262 -0.01241,0.0523 -0.0186,0.0786 -0.03767,0.15153 -0.08894,0.34415 -0.132807,0.46767 -0.03371,0.16527 -0.05922,0.3319 -0.0863,0.49868 -0.04204,0.24119 -0.0397,0.49191 -0.08837,0.73277 -0.02812,0.2375 -0.06222,0.47819 -0.129706,0.71055 -0.08946,0.3094 -0.198845,0.6129 -0.321945,0.91054 -0.08744,0.22014 -0.177414,0.43995 -0.275953,0.65474 -0.07121,0.20534 -0.141997,0.41081 -0.217559,0.61495 -0.08524,0.20561 -0.17413,0.40934 -0.26665,0.61185 0.0011,-0.003 0.04475,-0.11657 0.02585,-0.0703 -0.07002,0.17149 -0.137017,0.34434 -0.225827,0.50747 -0.02655,0.0536 -0.05275,0.10739 -0.07906,0.16123 0.04653,0.007 0.0926,0.009 0.139526,0.0217 0.657172,0.18442 1.193834,0.70654 1.646409,1.2175 0.264427,0.29852 0.277699,1.32463 0.302308,1.7079 0.01688,1.69298 -0.355243,3.34938 -0.76998,4.98006 -0.272129,1.05292 -0.610672,2.08622 -0.942578,3.12126 -0.139457,0.46246 -0.281295,0.92433 -0.403593,1.39164 -0.07293,0.27633 -0.143645,0.55334 -0.213421,0.83044 0.155758,0.83083 0.288864,1.66582 0.258382,2.51613 -0.0029,0.0639 -0.0065,0.12778 -0.0088,0.19172 0.102571,-0.20759 0.205508,-0.41507 0.305925,-0.62374 0.156559,-0.34849 0.248489,-0.71922 0.325562,-1.09244 -0.0068,-0.14744 -0.04112,-0.32935 0.06718,-0.33589 0.295489,-1.30236 0.08878,-0.76846 2.918166,0.40411 0.120433,0.0228 0.240777,0.0458 0.36122,0.0677 0.02043,-0.0425 0.0419,-0.085 0.06201,-0.12764 0.615944,-1.33644 1.157538,-2.70384 1.683617,-4.07778 0.497541,-1.24119 1.003017,-2.47896 1.543577,-3.7021 0.309084,-0.74153 0.627944,-1.48195 0.875398,-2.2469 0.05985,-0.20444 0.139761,-0.41808 0.13436,-0.63148 -0.0042,-0.13458 -0.07545,-0.2551 -0.115755,-0.38086 -0.02027,-0.0513 -0.08169,-0.20465 -0.103354,-0.26665 -0.0016,-0.005 0.0052,0.008 0.0078,0.0124 0.02522,0.0473 0.05024,0.0948 0.07545,0.14211 -0.205941,-0.4449 -0.08316,-0.128 -0.188622,-0.41392 -0.209259,-0.78963 -0.08595,-1.24125 0.371039,-1.88258 0.0655,-0.0919 0.153805,-0.16711 0.246496,-0.23152 0.15103,-0.10491 0.319707,-0.18194 0.479558,-0.27284 0.240813,-0.0348 0.480456,-0.12195 0.721918,-0.12402 0.0345,-2.6e-4 0.0693,0.001 0.10387,0.005 0.337415,0.035 0.610711,0.1432 0.854213,0.29921 -0.01664,-0.0593 -0.0037,-0.0909 0.01138,-0.17312 0.0066,-0.004 0.01315,-0.009 0.01963,-0.0134 -0.02831,-0.10524 -0.05499,-0.21363 0.01035,-0.21704 0.01992,-0.001 0.04867,0.008 0.08836,0.0295 0.02529,0.0138 0.0217,0.0118 0.04083,0.0248 0.01979,0.009 0.04556,0.022 0.05168,0.0269 0.0093,0.007 0.0186,0.0131 0.02791,0.0202 7.94e-4,0.001 -0.0013,-5.3e-4 -0.0021,-0.001 -0.0051,-0.003 -0.0104,-0.006 -0.0155,-0.009 0.02167,0.0148 0.04366,0.0258 0.06201,0.0444 0.0011,0.001 0.0021,0.002 0.0031,0.003 l 5.3e-4,5.2e-4 c 0.0033,0.002 0.0064,0.004 0.0093,0.006 0.0047,0.003 0.0093,0.007 0.01394,0.0103 0.0059,0.005 0.02236,0.008 0.01913,0.0129 0.007,0.005 0.01476,0.0108 0.02376,0.0171 -0.0011,-5.3e-4 -0.0024,-0.001 -0.0031,-0.002 l -0.0181,-0.009 c 0.05387,0.03 0.09412,0.0558 0.09095,0.061 0.0063,0.004 0.01005,0.006 0.015,0.01 0.01614,0.009 0.03188,0.0171 0.03462,0.0191 -0.0013,-2.7e-4 -0.0048,-10e-4 -0.01188,-0.005 0.0019,0.002 0.0046,0.004 0.0067,0.006 0.0052,0.003 0.01058,0.006 0.01344,0.007 7.94e-4,5.3e-4 0.0021,0.001 0.0021,0.001 0.02625,0.0164 0.01818,0.0114 0.03721,0.0284 5.3e-4,2.7e-4 0.0011,8e-4 0.0016,10e-4 5.29e-4,5.3e-4 0.0013,8e-4 0.0021,0.002 0.01484,0.009 0.02928,0.0182 0.04237,0.0305 l 5.29e-4,5.3e-4 c 0.01609,0.0106 0.05361,0.0356 0.05168,0.0382 0.03791,0.04 0.07854,0.0748 0.09612,0.16589 -0.0065,0.0383 -0.01135,0.0767 -0.01963,0.11472 -0.0097,0.0444 -0.07899,0.10157 -0.115756,0.11317 -0.02003,0.006 -0.04097,0.009 -0.06201,0.0103 0.0075,0.0325 0.01299,0.0651 0.0186,0.0982 0.295916,0.3601 0.579427,0.73771 0.665594,1.20974 0.09197,0.50385 0.06867,0.80874 -0.03617,0.97152 0.08901,0.70349 -0.05538,1.39788 -0.240294,2.07584 -0.279196,0.91154 -0.655841,1.78965 -1.02216,2.66857 -0.533691,1.20803 -1.033163,2.43038 -1.524455,3.65611 -0.478745,1.2563 -0.977077,2.50421 -1.523939,3.73207 1.242645,-0.10316 1.286857,-0.18393 1.129647,0.80409 -0.0044,0.0291 -0.0086,0.0582 -0.01291,0.0873 0.02649,0.0239 0.0066,0.0754 -0.01963,0.13074 -0.07422,0.49843 -0.147236,0.99713 -0.225311,1.495 -0.02895,0.61148 -0.01937,1.22258 0.02016,1.83245 0.863023,-0.61677 1.680038,-0.40003 2.517677,0.20567 0.09726,0.0825 0.201022,0.15865 0.291973,0.24805 0.56429,0.55503 0.927732,1.25751 1.042313,2.04432 0.03281,0.22507 0.02551,0.45398 0.03824,0.68109 -0.0053,0.049 -0.0084,0.0828 -0.01291,0.12764 0.08749,0.12923 0.164944,0.24247 0.302824,0.44649 0.908098,1.26496 1.955289,2.42164 3.031339,3.545 0.191471,-0.31467 0.408181,-0.61509 0.641824,-0.90279 0.531489,-0.56955 1.057224,-0.86937 1.768882,-0.91777 -0.175604,-0.34498 -0.370909,-0.68016 -0.564306,-1.01544 -0.444016,-0.72747 -0.72168,-1.53024 -0.945163,-2.34766 -0.12664,-0.5107 -0.265946,-1.02697 -0.257347,-1.55805 8e-6,-5.3e-4 -8e-6,-0.001 0,-0.002 -0.197879,-0.49115 -0.11099,-1.06956 0.294039,-1.56476 0.106424,-0.33792 0.2285,-0.6716 0.349332,-1.00408 0.134009,-0.27492 0.217549,-0.55519 0.27957,-0.85111 0.03951,-0.29688 0.113374,-0.60082 0.08423,-0.90175 -0.04358,-0.15384 -0.0825,-0.31054 -0.149344,-0.45631 -0.137002,-0.29546 -0.2657,-0.59502 -0.379307,-0.9002 -0.129379,-0.3789 -0.215286,-0.77041 -0.286803,-1.16375 -0.04486,-0.26312 -0.06674,-0.52913 -0.0832,-0.7953 -0.05494,-0.75593 0.249015,-1.28457 0.744143,-1.8216 0.26701,-0.28434 0.568431,-0.53215 0.894517,-0.74517 0.15304,-0.0705 0.295828,-0.16927 0.458888,-0.21187 0.939771,-0.24525 1.553548,0.032 2.305801,0.50849 -0.0063,-0.0231 -0.01288,-0.0462 -0.01913,-0.0692 -0.08131,-0.14384 -0.169868,-0.28338 -0.24443,-0.43099 -0.0331,-0.077 -0.04966,-0.10977 -0.0739,-0.19017 -0.03251,-0.10776 -0.04397,-0.21941 -0.05736,-0.33072 -0.0076,-0.0769 -0.01341,-0.15396 -0.02016,-0.231 -0.03023,-0.0477 -0.04961,-0.115 -0.04909,-0.20205 5.29e-4,-0.0934 0.0021,-0.18616 -0.0078,-0.27906 -0.01132,-0.0936 -0.02784,-0.1868 -0.05374,-0.2775 -0.01376,-0.0506 -0.03616,-0.0987 -0.05323,-0.14831 -0.01593,-0.0442 -0.02466,-0.0898 -0.02946,-0.13643 -0.0034,-0.0405 -0.0039,-0.0814 -0.0047,-0.12195 -0.0029,-0.0602 0.01434,-0.11742 0.03462,-0.17312 0.0055,-0.0124 0.01082,-0.0248 0.01601,-0.0372 -0.01439,-0.0382 -0.02032,-0.0794 -0.03462,-0.11731 -0.01947,-0.051 -0.02897,-0.10516 -0.03565,-0.15916 -0.0055,-0.0523 -0.01659,-0.10397 -0.02429,-0.15607 -0.0013,-0.0349 -0.0069,-0.043 -0.01704,-0.0723 -0.003,-0.009 -0.0056,-0.0175 -0.0083,-0.0264 h -5.29e-4 c -0.02775,-0.0113 -0.06239,-0.0355 -0.0677,-0.0382 5.29e-4,5.3e-4 0.0021,0.002 0.0062,0.006 -0.05016,-0.0205 -0.08185,-0.059 -0.107487,-0.10335 -0.01876,-0.0325 -0.0231,-0.0522 -0.02532,-0.0703 -0.01069,-0.008 -0.02072,-0.0171 -0.03101,-0.0269 -5.29e-4,-5.3e-4 -0.0011,-10e-4 -0.0016,-0.002 -2.2e-4,-2.1e-4 -7.94e-4,-7.9e-4 -0.0011,-0.001 -9.8e-5,-4e-5 -0.0011,-5.3e-4 -0.0011,-5.3e-4 -0.01434,-0.014 -0.02815,-0.0301 -0.04134,-0.0481 -0.03541,-0.0483 -0.06529,-0.098 -0.08888,-0.15296 0.0013,-0.0422 -0.0069,-0.0856 0.0036,-0.12661 0.0076,-0.0299 0.02582,-0.0584 0.04909,-0.0786 0.04541,-0.0394 0.09058,-0.0576 0.139528,-0.0594 0.02564,-0.001 0.05236,0.003 0.08061,0.0103 0.03253,0.008 0.06201,0.0225 0.08785,0.0429 0.01624,0.007 0.03158,0.0182 0.06718,0.0341 0.08844,0.0395 0.09482,0.0693 0.06046,0.0941 0.01032,0.003 0.02072,0.006 0.03049,0.0103 0.0132,0.006 0.03003,0.0132 0.04134,0.0222 0.02003,0.0152 0.03219,0.0249 0.04031,0.0315 5.29e-4,2.6e-4 0.0016,7.9e-4 0.0021,0.001 5.29e-4,5.3e-4 0.0016,0.001 0.0021,0.002 0.01717,0.0106 0.03296,0.0211 0.03824,0.0289 0.04862,0.0451 0.01537,0.0172 0.07286,0.0734 0.03402,0.0426 0.06506,0.088 0.09457,0.13385 0.03122,0.005 0.0634,0.009 0.09405,0.0108 v -10e-4 c 0.384474,0.0278 0.385477,0.39013 0,0.38912 -0.03793,-1e-4 -0.07595,-0.003 -0.113686,-0.008 0.0016,0.0117 0.004,0.0233 0.0052,0.0351 0.0028,0.0253 0.0067,0.0504 0.01447,0.0744 0.0191,0.005 0.03925,0.0108 0.06098,0.0186 0.02162,0.008 0.03485,0.0304 0.05219,0.0455 0.05661,0.0617 0.07615,0.14078 0.08837,0.22117 0.0068,0.0648 0.0208,0.16989 -0.02479,0.22377 -0.02228,0.0264 -0.05109,0.0462 -0.07958,0.0661 0.0163,0.0278 0.02747,0.0586 0.04806,0.0837 0.05155,0.0633 0.106683,0.1258 0.141076,0.2005 0.02323,0.0659 0.03721,0.13424 0.03411,0.20464 -0.0011,0.0818 -0.0021,0.16366 -0.0047,0.24547 -0.0013,0.0365 -0.0032,0.0731 -0.0052,0.10954 0.03213,0.15253 0.06347,0.30489 0.09095,0.45837 0.03972,0.22318 0.08259,0.44583 0.136427,0.66612 0.04402,0.1804 0.09419,0.3591 0.158647,0.5333 0.06188,0.0893 0.122534,0.1798 0.195337,0.26045 0.07538,0.0745 0.155707,0.14405 0.232026,0.21755 0.07809,0.075 0.06138,0.15128 0.0078,0.17157 0.335754,0.41564 0.599173,0.87824 0.845942,1.40404 0.266401,0.63947 0.44613,1.30886 0.580845,1.98696 0.09398,0.64743 0.207502,1.29152 0.334346,1.93322 0.15897,0.8309 0.382662,1.64721 0.596863,2.46496 0.212418,0.85001 0.398013,1.70648 0.555522,2.56832 0.155395,0.76561 0.243697,1.5414 0.312642,2.31873 0.06382,0.72759 0.137359,1.45423 0.212389,2.18074 0.0425,0.41025 0.07339,0.82481 0.16795,1.22732 0.04872,0.22758 0.121163,0.44797 0.193786,0.66869 0.154458,0.46941 0.220263,0.89423 0.220657,1.27227 H 138.20603 V 82.170177 Z M 53.855112,193.05127 c 1.59e-4,5.3e-4 0.0019,0.003 0.0067,0.007 0.0044,0.003 0.0073,0.005 0.0088,0.006 0.0013,5.3e-4 0.0028,0.001 0.0041,0.002 -2.65e-4,-7.9e-4 -7.94e-4,-0.001 -0.0011,-0.002 -0.01029,-0.007 -0.01894,-0.0135 -0.0186,-0.0124 z m -2.147157,1.30483 c -0.30226,-0.006 -0.428128,0.27575 -0.226859,1.10019 0.04869,0.19943 0.04234,0.21192 0.147793,0.42426 0.01421,0.0286 0.03232,0.0548 0.05064,0.0811 0.26456,0.25775 0.597628,0.3936 1.005623,0.43925 0.267126,0.0299 0.532596,-0.0731 0.798918,-0.10955 0.153027,-0.0856 0.314589,-0.15793 0.459404,-0.25683 0.0868,-0.0593 0.169373,-0.12936 0.230994,-0.21446 0.02349,-0.0324 0.04288,-0.0626 0.06459,-0.094 -0.813051,-0.36752 -1.972635,-1.3588 -2.531112,-1.36994 z m -7.478612,1.30741 c -0.07775,-0.009 -0.09846,0.12172 -0.147796,0.18242 -0.0028,0.004 -0.0055,0.009 -0.0083,0.0134 0.0076,-0.004 0.01516,-0.008 0.02273,-0.0119 0.06806,-0.0331 0.208516,-0.17597 0.133326,-0.18397 z m 19.042763,3.95996 c 0.0016,0.003 0.0055,0.009 0.01394,0.0196 -7.94e-4,-0.001 -0.0013,-0.003 -0.0021,-0.004 -0.007,-0.0139 -0.0149,-0.0213 -0.01188,-0.0155 z m 0.699183,13.95522 c -0.211635,0.007 -0.423561,0.0164 -0.635103,0.0315 0.122605,0.42392 0.266136,0.84052 0.503327,1.21749 0.179319,0.31087 0.35804,0.62233 0.527101,0.93896 -0.04439,-0.35603 -0.09851,-0.71046 -0.171048,-1.06246 -0.0682,-0.37642 -0.143537,-0.75153 -0.224277,-1.12552 z m -0.873331,4.56458 c 0.01066,0.005 0.0213,0.0101 0.03204,0.015 0.02059,0.009 0.08262,0.0368 0.06253,0.0264 -0.03545,-0.0183 -0.0657,-0.031 -0.09457,-0.0413 z m -21.435386,0.6103 c -0.06251,0.0125 -0.122637,0.0324 -0.175699,0.0667 -0.02619,0.0169 0.06056,-0.0161 0.0894,-0.0279 0.02924,-0.012 0.05755,-0.0258 0.0863,-0.0388 z m 11.884546,0.28526 c -0.177829,0.12001 -0.367905,0.22956 -0.571023,0.32814 -0.325821,0.15804 -0.688028,0.22662 -1.031978,0.34003 -0.357471,0.0426 -0.712494,0.11586 -1.072288,0.12816 -0.569045,0.0195 -1.154565,-0.0351 -1.731158,-0.15451 -0.424508,0.95224 -0.81131,1.73957 -2.183847,2.03605 h 8.938472 c -0.816052,-0.86287 -1.612236,-1.74607 -2.348178,-2.67787 z M 39.36814,219.4295 c -0.282681,0.50707 -0.558308,1.01833 -0.779799,1.55546 -0.113585,0.27546 -0.240855,0.51841 -0.377753,0.73174 h 2.113566 c -0.0016,-0.001 -0.0029,-0.003 -0.0047,-0.004 -0.281249,-0.27188 -0.457028,-0.63986 -0.623734,-0.99374 -0.12959,-0.27508 -0.194815,-0.57771 -0.256831,-0.8754 -0.02819,-0.13525 -0.0509,-0.27382 -0.0708,-0.41393 z m 25.456327,0.65371 c -0.158282,0.38479 -0.371091,0.73657 -0.707967,1.05161 -0.146251,0.13676 -0.306247,0.27057 -0.492477,0.34417 -0.306713,0.12115 -0.638799,0.16242 -0.960149,0.23771 h 2.589507 c -0.0158,-0.0441 -0.03308,-0.0856 -0.04806,-0.13126 -0.111705,-0.34064 -0.216924,-0.68335 -0.293005,-1.03404 -0.03268,-0.15562 -0.06146,-0.31154 -0.08785,-0.46819 z m -19.813262,0.80512 c -0.276826,0.25806 -0.473244,0.38763 -0.78858,0.6134 -0.107765,0.0649 -0.232476,0.14023 -0.358635,0.21497 h 2.330606 c -0.46474,-0.11675 -0.85566,-0.43979 -1.183391,-0.82837 z m 17.269748,0.0362 c -0.03974,0.045 -0.07716,0.0918 -0.114204,0.13901 0.0969,-0.0572 0.0998,-0.0636 0.114204,-0.13901 z m -0.446484,0.65784 c -0.01976,0.0381 -0.04056,0.0759 -0.05891,0.11472 -0.0021,0.009 -0.0021,0.0113 -0.0041,0.0196 h 0.762744 c -0.162602,-0.0205 -0.326131,-0.0361 -0.486275,-0.0703 -0.07307,-0.0156 -0.143714,-0.0381 -0.213424,-0.0641 z" /></clipPath></defs><g
     id="layer6"
     transform="translate(-19.501969,-0.29998566)"><g
       id="g17125"
       style="display:inline"
       transform="matrix(1.2268526,0,0,1.2268525,-7.491382,-50.831751)"><path
         style="display:inline;fill:#b795e2;fill-opacity:1;stroke:none;stroke-width:0.901095;stroke-opacity:1"
         d="M 376.20714,792.37995 C 284.34548,788.54158 196.16241,738.92881 141.22441,660.17607 122.22927,632.94684 105.649,598.14313 96.520625,566.33817 78.156145,502.35292 79.533832,434.32789 100.46253,371.70167 c 11.96183,-35.79412 28.98156,-67.05031 54.05776,-99.27535 8.16753,-10.49597 37.27454,-39.44701 49.0407,-48.77791 104.61154,-82.95995 248.12077,-88.34583 357.8177,-13.42883 34.39966,23.49308 63.25496,53.11229 86.33172,88.61726 53.93984,82.98968 66.65008,187.72109 34.25854,282.28765 -22.3871,65.35875 -65.8287,122.3353 -121.93844,159.93039 -55.9914,37.51579 -115.65205,54.17357 -183.82337,51.32507 z"
         id="path17114"
         clip-path="url(#clipPath12481)"
         transform="scale(0.26458333)" /><path
         style="display:inline;fill:#9769cd;fill-opacity:1;stroke:none;stroke-width:0.182077"
         d="m 145.17446,180.85195 c 1.1787,-0.41952 1.84962,-1.5957 2.56753,-2.59765 1.56429,-2.18295 2.996,-4.50413 4.29727,-6.8652 5.68664,-10.31674 8.97905,-22.07757 9.4009,-33.95475 0.48367,-13.61611 -2.17928,-26.90808 -8.45929,-38.964864 C 142.24886,77.864965 119.00615,61.662338 96.039305,61.54563 83.69173,61.482915 71.923772,62.874882 61.019342,69.526338 c -2.487311,1.51721 -4.759857,3.225162 -6.968258,5.147605 -0.637864,0.555154 -1.98649,1.476947 -2.009717,2.446796 -0.01858,0.767604 0.829401,0.7099 1.295024,0.482606 1.252678,-0.611189 2.389397,-1.714632 3.573465,-2.477041 5.413622,-3.485668 11.181374,-6.126917 17.331308,-7.856577 25.051424,-7.045742 51.642296,1.97421 68.407926,22.479093 14.99015,18.33362 18.71317,43.60778 12.90914,66.4255 -1.56124,6.13749 -4.11323,12.07404 -7.04365,17.62688 -0.91821,1.74005 -3.80396,5.05613 -3.34012,7.05075 M 84.961561,78.880458 c -6.043445,0.793766 -11.504058,1.232212 -17.152635,3.946009 -1.300026,0.624548 -2.62739,1.286205 -3.751245,2.222285 -0.327866,0.272939 -1.149048,0.894889 -0.862814,1.433715 0.494925,0.931627 4.06321,-1.056871 4.792733,-1.310512 5.044482,-1.752854 10.039115,-2.804529 15.365902,-2.845535 15.656067,-0.120419 30.362488,5.970873 41.266558,17.81298 12.24931,13.30291 16.44366,32.04975 14.01924,49.9119 -0.56371,4.154 -1.56196,8.24084 -2.7605,12.24604 -0.15741,0.52639 -1.52926,3.73486 -0.17135,3.54003 0.76437,-0.10965 1.20766,-1.43798 1.49157,-2.05566 0.97806,-2.1284 1.8373,-4.25606 2.55574,-6.49412 3.05621,-9.52129 3.8404,-20.19761 1.94468,-30.05846 C 137.48418,105.30371 121.80238,87.350452 101.04216,81.239677 96.11667,79.790005 90.11164,78.204143 84.961561,78.880458 m -51.457905,3.260973 c -2.68403,5.962894 -5.777918,11.461738 -7.678395,17.812424 -5.769288,19.278985 -5.085738,40.363695 2.573253,59.003655 2.444161,5.94861 5.560759,11.7074 9.299498,16.88469 1.337012,1.85138 2.732629,3.64988 4.212222,5.38084 0.566931,0.66314 1.727949,1.6046 1.917522,2.49077 0.216552,1.01364 -0.383612,2.61657 -0.566573,3.63225 -0.489565,2.71806 -0.909983,5.45246 -1.431352,8.16403 -1.68203,8.74905 -2.983308,17.57993 -4.574036,26.34754 h 30.910478 l -2.823038,-14.1015 -1.822467,-8.53512 c 17.65149,9.64469 37.151532,13.28862 56.818102,9.20309 6.01218,-1.24892 12.70564,-3.00975 18.046,-6.23435 C 130.00045,174.95993 113.96935,151.89321 95.340692,131.1256 87.396521,122.26948 79.087856,113.82213 70.131679,106.06203 62.071013,99.077706 53.433231,92.717743 44.224053,87.46549 41.024729,85.641015 37.12858,82.810324 33.503656,82.141431 m 1.786733,4.700439 c 0.138115,0 0.02859,0.0924 -0.0595,0.06197 l 0.0595,-0.06197 m 0.53602,0.123759 -0.178673,0.185546 0.178673,-0.185546 m 0.357347,0.185546 -0.178674,0.185546 0.178674,-0.185546 m 1.608059,0.92773 -0.178673,0.185547 0.178673,-0.185547 m -2.144079,0.185547 -0.178674,0.185546 0.178674,-0.185546 m 4.645505,1.113276 -0.178673,0.185546 0.178673,-0.185546 m -4.288159,0.185546 -0.178673,0.185546 0.178673,-0.185546 m 4.645506,0 -0.178674,0.185546 0.178674,-0.185546 m 0.357346,0.185546 -0.178673,0.185546 0.178673,-0.185546 m 0.357347,0.185546 -0.178674,0.185546 0.178674,-0.185546 m -5.181525,0.371092 -0.178674,0.185547 0.178674,-0.185547 m 5.717545,0 -0.178674,0.185547 0.178674,-0.185547 m 0.714693,0.371093 -0.178674,0.185546 0.178674,-0.185546 m 0.357346,0.185546 -0.178673,0.185546 0.178673,-0.185546 m 0.357347,0.185546 -0.178673,0.185546 0.178673,-0.185546 m 0.53602,0.371092 -0.178674,0.185546 0.178674,-0.185546 m 0.357346,0.185546 -0.178673,0.185546 0.178673,-0.185546 m 0.53602,0.371092 -0.178673,0.185546 0.178673,-0.185546 m 0.357347,0.185546 -0.178674,0.185546 0.178674,-0.185546 m 0.714693,0.371092 -0.178674,0.185547 0.178674,-0.185547 m -8.754991,0.556639 -0.178673,0.185546 0.178673,-0.185546 m 9.82703,0.185546 -0.178673,0.185546 0.178673,-0.185546 m 0.357347,0.185546 -0.178673,0.185546 0.178673,-0.185546 m -9.827031,0.742184 -0.178673,0.185546 0.178673,-0.185546 m 10.899071,0 -0.178674,0.185546 0.178674,-0.185546 m 0.357346,0.185546 -0.178673,0.185546 0.178673,-0.185546 m -11.077743,0.371092 -0.178674,0.185547 0.178674,-0.185547 m 11.613763,0 -0.178673,0.185547 0.178673,-0.185547 m 0.893366,0.556639 -0.178673,0.185546 0.178673,-0.185546 m 0.53602,0.371092 -0.178673,0.185546 0.178673,-0.185546 m -12.685803,0.185546 -0.178673,0.185546 0.178673,-0.185546 m 13.221823,0.185546 -0.178673,0.185546 0.178673,-0.185546 m 0.357347,0.185546 0.178673,0.371092 -0.178673,-0.371092 m 0.53602,0.371092 -0.178674,0.185546 0.178674,-0.185546 m 0.536019,0.371092 0.178674,0.371093 -0.178674,-0.371093 m 30.910478,0.08609 c -2.535195,0.230263 -5.013394,0.294647 -7.504278,0.939234 -0.643938,0.166621 -2.412625,0.495779 -2.174096,1.552279 0.240851,1.06689 2.380107,0.433064 3.067463,0.398367 3.368706,-0.170146 6.648075,-0.279803 10.005703,0.233793 10.944096,1.67437 20.330343,8.22229 27.039523,17.20031 5.35376,7.1643 8.99209,16.34735 9.6044,25.41981 0.1508,2.23435 0.34127,4.43418 0.34145,6.67966 0,0.47407 -0.20476,1.923 0.54316,1.923 0.61285,0 0.78241,-0.8973 0.88354,-1.36636 0.31536,-1.4634 0.44365,-2.95983 0.60553,-4.44587 0.68557,-6.28983 -0.7381,-12.92254 -2.96205,-18.74739 -5.12935,-13.43502 -16.36594,-25.24837 -30.159334,-28.617707 -2.930778,-0.715837 -6.268395,-1.44392 -9.291011,-1.169126 m -45.025667,0.284999 -0.178673,0.185546 0.178673,-0.185546 m 14.829883,0.185546 -0.178674,0.185546 0.178674,-0.185546 m -14.65121,0.371092 -0.178673,0.185546 0.178673,-0.185546 m 15.187229,0 -0.178673,0.185546 0.178673,-0.185546 m 0.53602,0.371092 -0.178673,0.185546 0.178673,-0.185546 m 0.53602,0.371092 -0.178673,0.185546 0.178673,-0.185546 m 0.53602,0.371092 0.178673,0.371093 -0.178673,-0.371093 m 0.53602,0.371093 0.178673,0.371092 -0.178673,-0.371092 m 0.714693,0.556638 -0.178673,0.185549 0.178673,-0.185549 m 0.893366,0.742189 -0.178673,0.18555 0.178673,-0.18555 m 0.357347,0.18555 -0.178673,0.18554 0.178673,-0.18554 m 0.53602,0.37109 0.178673,0.37109 -0.178673,-0.37109 m -18.403348,0.37109 -0.178674,0.18555 0.178674,-0.18555 m 0.119175,0.49485 -0.05968,0.12357 0.05968,-0.12357 m 19.177539,-0.12376 -0.178673,0.18555 0.178673,-0.18555 m 0.357347,0.18555 -0.178674,0.18554 0.178674,-0.18554 m -19.296715,0.37109 -0.178673,0.18555 0.178673,-0.18555 m 19.654061,0 -0.178673,0.18555 0.178673,-0.18555 m 0.357347,0.18555 0.178673,0.37109 -0.178673,-0.37109 m 1.072039,0.92773 -0.178673,0.18554 0.178673,-0.18554 m 0.53602,0.37109 -0.178673,0.18554 0.178673,-0.18554 m 0.714693,0.55664 0.178674,0.37109 -0.178674,-0.37109 m -21.440793,0.18554 -0.178674,0.18555 0.178674,-0.18555 m 0.178673,0.3711 -0.178673,0.18554 0.178673,-0.18554 m 22.155487,0.18554 0.178673,0.37109 -0.178673,-0.37109 m -21.976814,0.18555 -0.178673,0.18554 0.178673,-0.18554 m 22.691507,0.37109 0.178673,0.37109 -0.178673,-0.37109 m -22.512833,0.18555 -0.178674,0.18554 0.178674,-0.18554 m 0.178673,0.37109 -0.178673,0.18554 0.178673,-0.18554 m 23.227526,0.18554 0.178674,0.3711 -0.178674,-0.3711 m 0.893367,0.74219 -0.178674,0.18554 0.178674,-0.18554 m -23.584873,0.18554 -0.178674,0.18555 0.178674,-0.18555 m 0.178673,0.55664 -0.178673,0.18555 0.178673,-0.18555 m 24.478239,0.18555 -0.178673,0.18554 0.178673,-0.18554 m -24.299566,0.18554 -0.178673,0.18555 0.178673,-0.18555 m 25.192933,0.55664 0.53602,0.74219 -0.53602,-0.74219 m 1.07204,0.92773 0.357346,0.55664 -0.357346,-0.55664 m -25.371606,0.3711 -0.178674,0.18554 0.178674,-0.18554 m 0.178673,0.37109 -0.178673,0.18554 0.178673,-0.18554 m 26.443646,0.37109 0.357346,0.55664 -0.357346,-0.55664 M 44.5814,111.8288 44.402726,112.01435 44.5814,111.8288 m 26.979665,0.18555 0.714693,0.92773 -0.714693,-0.92773 m -26.86049,0.30931 -0.05968,0.12357 0.05968,-0.12357 m 0.416845,0.61842 0.178673,0.55664 -0.178673,-0.55664 m 28.051705,0.55664 0.714693,0.92773 -0.714693,-0.92773 m -27.515686,0.55664 -0.178673,0.18554 0.178673,-0.18554 m 0.357347,0.74218 -0.178673,0.18555 0.178673,-0.18555 m 28.766398,0.18555 0.357347,0.55664 -0.357347,-0.55664 m 0.893367,0.92773 -0.178674,0.18554 0.178674,-0.18554 m -28.587725,0.92773 -0.178674,0.18554 0.178674,-0.18554 m 29.659764,0 0.178674,0.37109 -0.178674,-0.37109 m 0.53602,0.55664 -0.178673,0.18554 0.178673,-0.18554 m -29.302418,1.29882 -0.178673,0.18555 0.178673,-0.18555 m 31.089151,0.37109 -0.178673,0.18555 0.178673,-0.18555 m -30.553131,0.55664 -0.178673,0.18555 0.178673,-0.18555 m 31.089151,0 0.53602,0.74218 -0.53602,-0.74218 m -30.910478,0.37109 -0.178673,0.18555 0.178673,-0.18555 m 0.178673,0.37109 -0.178673,0.18555 0.178673,-0.18555 m 0.357347,0.55664 -0.178673,0.18555 0.178673,-0.18555 m 31.625171,0 -0.178673,0.18555 0.178673,-0.18555 m 0.53602,0.55664 -0.178674,0.18555 0.178674,-0.18555 m -31.803844,0.18555 -0.178674,0.18554 0.178674,-0.18554 m 32.16119,0.18554 -0.178673,0.18555 0.178673,-0.18555 m 0.714693,0.74219 -0.178673,0.18554 0.178673,-0.18554 m -32.16119,0.18554 0.178673,0.55664 -0.178673,-0.55664 m 0.357346,0.74219 -0.178673,0.18554 0.178673,-0.18554 m 32.875884,0 0.178673,0.37109 -0.178673,-0.37109 m 0.53602,0.55664 -0.178673,0.18554 0.178673,-0.18554 m -32.875884,0.37109 -0.178673,0.18554 0.178673,-0.18554 m 33.23323,0 -0.178673,0.18554 0.178673,-0.18554 m -33.054557,0.37109 -0.178673,0.18555 0.178673,-0.18555 m 33.590577,0.18555 -0.178673,0.18554 0.178673,-0.18554 m -33.23323,0.37109 -0.178673,0.18554 0.178673,-0.18554 m 0.178673,0.37109 -0.178673,0.18555 0.178673,-0.18555 m 0.357347,0.55664 -0.178673,0.18554 0.178673,-0.18554 m 0.178673,0.37109 0.178673,0.37109 -0.178673,-0.37109 m 34.126597,0 -0.178673,0.18555 0.178673,-0.18555 m -33.590577,0.74219 -0.178673,0.18554 0.178673,-0.18554 m 0.178673,0.37109 -0.178673,0.18554 0.178673,-0.18554 m 35.198637,0.92773 -0.178674,0.18554 0.178674,-0.18554 m 0.53602,0.55664 0.357346,0.55663 -0.357346,-0.55663 m -34.483944,0.55663 -0.178673,0.18555 0.178673,-0.18555 m 35.198637,0.18555 0.178673,0.37109 -0.178673,-0.37109 m 0.536019,0.55664 -0.178673,0.18554 0.178673,-0.18554 m -35.198636,0.18554 0.178673,0.3711 -0.178673,-0.3711 m 35.555983,0.18555 -0.178673,0.18555 0.178673,-0.18555 m -8.576317,0.55664 -0.178674,0.18555 0.178674,-0.18555 m 9.112337,0 -0.178673,0.18555 0.178673,-0.18555 m -8.576318,0.24733 c 0.138115,0 0.02859,0.0924 -0.0595,0.062 l 0.0595,-0.062 m -26.800992,0.12376 -0.178673,0.18555 0.178673,-0.18555 m 27.515686,0.18555 0.178673,0.37109 -0.178673,-0.37109 m -27.158339,0.37109 -0.178674,0.18555 0.178674,-0.18555 m 35.913329,0.18555 -0.178673,0.18554 0.178673,-0.18554 m -8.040297,0.18554 1.608059,1.85546 -1.608059,-1.85546 m -27.515686,0.18555 -0.178673,0.18554 0.178673,-0.18554 m 23.763547,0 -0.178674,0.18554 0.178674,-0.18554 m 12.149783,0 0.53602,0.74218 -0.53602,-0.74218 m -12.50713,0.37109 -0.178673,0.18555 0.178673,-0.18555 m -0.357346,0.55664 -0.178674,0.18554 0.178674,-0.18554 m 13.936516,0.18554 -0.178674,0.18555 0.178674,-0.18555 m -36.092003,0.18555 -0.178674,0.18555 0.178674,-0.18555 m 21.79814,0.18555 -0.53602,0.55663 0.53602,-0.55663 m -21.619467,0.18554 0.178673,0.37109 -0.178673,-0.37109 m 28.409052,0.18555 1.072039,1.29882 -1.072039,-1.29882 m -27.873032,0.55664 -0.178673,0.18554 0.178673,-0.18554 m 20.368754,0 -0.357347,0.37109 0.357347,-0.37109 m 16.259269,0.18554 0.714693,0.92773 -0.714693,-0.92773 m -36.092003,0.55664 -0.178674,0.18555 0.178674,-0.18555 m 19.296714,0 -0.178673,0.18555 0.178673,-0.18555 m -19.118041,0.37109 -0.178673,0.18555 0.178673,-0.18555 m 18.939368,0 -0.178673,0.18555 0.178673,-0.18555 m -0.238172,0.6804 -0.05968,0.12357 0.05968,-0.12357 m 18.64152,0.0618 0.53602,0.74218 -0.53602,-0.74218 m -36.628023,0.18554 -0.178673,0.18555 0.178673,-0.18555 m 28.766398,0 0.714694,0.92773 -0.714694,-0.92773 m -28.587725,0.3711 -0.178673,0.18554 0.178673,-0.18554 m 37.342716,0.37109 -0.178673,0.18554 0.178673,-0.18554 m -36.985369,0.18554 -0.178673,0.18555 0.178673,-0.18555 m 29.302418,0.18555 0.178673,0.37109 -0.178673,-0.37109 m -28.945072,0.18555 -0.178673,0.18554 0.178673,-0.18554 m 17.331309,0 -0.178673,0.18554 0.178673,-0.18554 m 19.654061,0 1.072039,1.29882 -1.072039,-1.29882 m -7.504278,0.37109 -0.178673,0.18554 0.178673,-0.18554 m -29.123745,0.18554 -0.178673,0.18555 0.178673,-0.18555 m 29.481091,0.18555 0.178674,0.37109 -0.178674,-0.37109 m -28.945071,0.55664 0.178673,0.37109 -0.178673,-0.37109 m 29.481091,0.18555 -0.178673,0.18554 0.178673,-0.18554 m -29.123745,0.37109 0.178674,0.37109 -0.178674,-0.37109 m 37.52139,0.18554 -0.178674,0.18555 0.178674,-0.18555 m -19.654061,0.18555 0.178673,0.37109 -0.178673,-0.37109 m 12.149783,0.18555 0.893366,1.11327 -0.893366,-1.11327 m 7.861624,0 0.357347,0.55663 -0.357347,-0.55663 m -19.475388,0.37109 -0.178673,0.18554 0.178673,-0.18554 m -17.331308,0.55664 -0.178673,0.18554 0.178673,-0.18554 m 17.867328,0 0.178674,0.37109 -0.178674,-0.37109 m 12.328457,0.37109 0.178673,0.37109 -0.178673,-0.37109 m 7.682954,0 -0.17868,0.18554 0.17868,-0.18554 m -20.190084,0.37109 -0.178673,0.18555 0.178673,-0.18555 m -16.973962,0.18555 -0.178673,0.18554 0.178673,-0.18554 m 16.616615,0.18554 -0.178673,0.18555 0.178673,-0.18555 m 21.262121,0.18555 0.17867,0.37109 -0.17867,-0.37109 m -7.504278,0.18554 -0.178673,0.18555 0.178673,-0.18555 m -14.472536,0.3711 -0.178673,0.18554 0.178673,-0.18554 m 22.512834,0 0.17867,0.37109 -0.17867,-0.37109 m -22.87018,0.37109 -0.178674,0.18554 0.178674,-0.18554 m -14.293863,0.37109 -0.178673,0.18555 0.178673,-0.18555 m 29.481092,0 v 0.55664 h -0.178674 l 0.178674,-0.55664 m -16.080596,0.37109 -0.178673,0.18555 0.178673,-0.18555 m 24.656917,0 -0.17868,0.18555 0.17868,-0.18555 m -37.700066,0.18555 -0.178673,0.18555 0.178673,-0.18555 m 12.685803,0.18555 -0.178673,0.18554 0.178673,-0.18554 m -0.357347,0.37109 -0.178673,0.18554 0.178673,-0.18554 m 16.437942,0.18554 -0.178673,0.18555 0.178673,-0.18555 m 9.648358,0 -0.17867,0.18555 0.17867,-0.18555 m -37.700063,0.18555 0.178673,0.37109 -0.178673,-0.37109 m 11.077743,0.18555 -0.178673,0.18554 0.178673,-0.18554 m 26.97967,0 -0.17868,0.18554 0.17868,-0.18554 m -19.118045,0.18554 -0.178674,0.18555 0.178674,-0.18555 m 8.576317,0 -0.357346,0.37109 0.357346,-0.37109 m -16.973961,0.37109 -0.178674,0.18555 0.178674,-0.18555 m -9.827031,0.18555 -0.178673,0.18555 0.178673,-0.18555 m 17.509982,0.18555 -0.178674,0.18554 0.178674,-0.18554 m -8.218971,0.18554 -0.178674,0.18555 0.178674,-0.18555 m -0.357347,0.37109 -0.178673,0.18555 0.178673,-0.18555 m 10.720397,0.18555 0.178673,0.37109 -0.178673,-0.37109 m -18.760695,0.18555 0.178674,0.37109 -0.178674,-0.37109 m 7.682952,0 -0.178674,0.18554 0.178674,-0.18554 m 30.195782,0 -0.17867,0.18554 0.17867,-0.18554 m -14.115187,0.18554 -0.357347,0.37109 0.357347,-0.37109 m -16.437942,0.18555 -0.178673,0.18554 0.178673,-0.18554 m 8.218971,0 -0.893366,0.92773 0.893366,-0.92773 m -8.576318,0.37109 -1.072039,1.11328 1.072039,-1.11328 m 31.446496,0 0.35735,0.55664 -0.35735,-0.55664 m -37.70006,0.18555 -0.178674,0.18554 0.178674,-0.18554 m 22.155486,0 -0.178673,0.18554 0.178673,-0.18554 m -0.357346,0.18554 -0.178673,0.18555 0.178673,-0.18555 m -1.786733,0.18555 -0.178673,0.18555 0.178673,-0.18555 m 1.250713,0.0618 c 0.138115,0 0.02859,0.0924 -0.0595,0.062 l 0.0595,-0.062 m -7.504278,0.12376 -0.178673,0.18554 0.178673,-0.18554 m 24.656918,0.18554 0.35734,0.55664 -0.35734,-0.55664 m -37.521394,0.37109 0.178673,0.3711 -0.178673,-0.3711 m 3.930812,0.18555 -0.178673,0.18555 0.178673,-0.18555 m -3.394792,0.37109 -0.178673,0.18555 0.178673,-0.18555 m 11.43509,0 -0.178673,0.18555 0.178673,-0.18555 m 26.443644,0.18555 -0.17867,0.18554 0.17867,-0.18554 m -26.800991,0.18554 -0.357346,0.3711 0.357346,-0.3711 m -0.53602,0.55664 -0.536019,0.55664 0.536019,-0.55664 m 27.873031,0 -0.17867,0.18555 0.17867,-0.18555 m -37.521388,0.18555 -0.178673,0.18554 0.178673,-0.18554 m 37.878738,0.18554 -0.17868,0.18555 0.17868,-0.18555 m -37.521391,0.18555 -0.178673,0.18555 0.178673,-0.18555 m 37.878731,0.37109 0.17868,0.37109 -0.17868,-0.37109 m -30.017107,0.74219 -0.178673,0.18554 0.178673,-0.18554 m -0.357346,0.37109 -0.357347,0.37109 0.357347,-0.37109 m -0.53602,0.55664 -0.178673,0.18554 0.178673,-0.18554 m 32.161193,0 -0.17868,0.18554 0.17868,-0.18554 m 0.53602,0.74218 -0.17868,0.18555 0.17868,-0.18555 m 0.53602,0.74219 -0.17868,0.18554 0.17868,-0.18554 m -34.841293,0.37109 -1.250713,1.29882 1.250713,-1.29882 m 35.377313,0.37109 -0.17868,0.18555 0.17868,-0.18555 m 0.53602,0.74218 -0.17868,0.18555 0.17868,-0.18555 m -36.449353,0.55664 -0.178673,0.18555 0.178673,-0.18555 m 0.357347,0.3711 0.53602,0.74218 -0.53602,-0.74218 m 37.342716,0.74218 -0.17867,0.18555 0.17867,-0.18555 m -36.44935,0.18555 0.714694,0.92773 -0.714694,-0.92773 m 36.8067,0.37109 -0.17868,0.18554 0.17868,-0.18554 m 0.17867,0.37109 0.17867,0.37109 -0.17867,-0.37109 m -35.91333,0.37109 -0.178673,0.18555 0.178673,-0.18555 m 36.62802,0.55664 -0.17867,0.18555 0.17867,-0.18555 m -35.734654,0.37109 -0.178673,0.18555 0.178673,-0.18555 m 35.913334,0 0.17867,0.37109 -0.17867,-0.37109 m 0.53602,0.74219 -0.17868,0.18554 0.17868,-0.18554 m -35.555987,0.18554 -0.178673,0.18555 0.178673,-0.18555 m 35.734657,0.18555 0.17867,0.37109 -0.17867,-0.37109 m -35.377311,0.18555 0.53602,0.74218 -0.53602,-0.74218 m 36.092001,0.74218 -0.17867,0.18555 0.17867,-0.18555 m -35.019961,0.37109 0.53602,0.74219 -0.53602,-0.74219 m 35.377311,0.18555 -0.17867,0.18554 0.17867,-0.18554 m 0.35735,0.55664 -0.17868,0.18554 0.17868,-0.18554 m 0.71469,1.11327 -0.17867,0.18555 0.17867,-0.18555 m 0.17867,0.37109 -0.17867,0.18555 0.17867,-0.18555 m -33.947922,0.3711 -0.178673,0.18554 0.178673,-0.18554 m 34.483942,0.37109 -0.17867,0.18555 0.17867,-0.18555 m -33.769249,0.37109 0.178674,0.37109 -0.178674,-0.37109 m 33.947919,0 -0.17867,0.18555 0.17867,-0.18555 m 0.35735,0.55664 0.17867,0.37109 -0.17867,-0.37109 m -32.697209,0.92773 -0.178673,0.18555 0.178673,-0.18555 m 33.947919,1.11328 0.17868,0.37109 -0.17868,-0.37109 m -32.518533,0.18554 -0.178673,0.18555 0.178673,-0.18555 m 0.357347,0.37109 0.178673,0.3711 -0.178673,-0.3711 m 32.875886,0.55664 -0.17868,0.18555 0.17868,-0.18555 m 0.17867,0.37109 0.17867,0.3711 -0.17867,-0.3711 m -31.446497,0.55664 -0.178673,0.18555 0.178673,-0.18555 m 31.803847,0 -0.17868,0.18555 0.17868,-0.18555 m 0.35734,0.55664 -0.17867,0.18555 0.17867,-0.18555 m -31.089147,0.37109 -0.178673,0.18555 0.178673,-0.18555 m 0.714693,0.55664 0.357347,0.55664 -0.357347,-0.55664 m 31.267824,0.74219 0.17867,0.37109 -0.17867,-0.37109 m -30.195784,0.18554 0.178673,0.37109 -0.178673,-0.37109 m 30.910474,1.11328 0.17868,0.37109 -0.17868,-0.37109 m 0.35735,0.55664 -0.17867,0.18554 0.17867,-0.18554 m -28.945071,0.18554 0.178673,0.3711 -0.178673,-0.3711 m 1.429386,1.11328 0.178673,0.37109 -0.178673,-0.37109 m 28.230375,0 -0.17867,0.18555 0.17867,-0.18555 m -27.337009,0.74218 -0.178673,0.18555 0.178673,-0.18555 m 27.694359,0 -0.17867,0.18555 0.17867,-0.18555 m 22.33416,0.18555 -0.17867,0.18555 0.17867,-0.18555 m -49.313826,0.37109 -0.178673,0.18555 0.178673,-0.18555 m 27.337016,0 -0.17868,0.18555 0.17868,-0.18555 m 0.17867,0.37109 -0.17867,0.18555 0.17867,-0.18555 m -26.800993,0.18555 -0.178673,0.18555 0.178673,-0.18555 m 0.53602,0.37109 -0.178673,0.18555 0.178673,-0.18555 m 0.714693,0.55664 -0.178673,0.18555 0.178673,-0.18555 m 26.0863,0 -0.17867,0.18555 0.17867,-0.18555 m 0.17867,0.37109 0.17868,0.55664 h -0.17868 v -0.55664 m 0.53602,0.92773 -0.17867,0.18555 0.17867,-0.18555 m 0.17868,0.3711 -0.17868,0.18554 0.17868,-0.18554 m 0.35734,0.74218 -0.17867,0.18555 0.17867,-0.18555 m 0.17868,0.37109 -0.17868,0.18555 0.17868,-0.18555 m -22.87018,0.55664 0.17867,0.37109 -0.17867,-0.37109 m 0.53602,0.37109 -0.17868,0.18555 0.17868,-0.18555 m 22.6915,0 0.17868,0.37109 -0.17868,-0.37109 m -22.15548,0.37109 -0.17868,0.18555 0.17868,-0.18555 m 0.53602,0.3711 -0.17868,0.18554 0.17868,-0.18554 m 0.35734,0.18554 0.17868,0.3711 -0.17868,-0.3711 m 0.71469,0.55664 -0.17867,0.18555 0.17867,-0.18555 m 0.35735,0.18555 0.17867,0.37109 -0.17867,-0.37109 m 0.89337,0.55664 0.17867,0.37109 -0.17867,-0.37109 m 0.53602,0.37109 0.17867,0.37109 -0.17867,-0.37109 m 20.01141,0 -0.17868,0.18554 0.17868,-0.18554 m -19.47539,0.37109 -0.17868,0.18555 0.17868,-0.18555 m 19.65406,0 -0.17867,0.18555 0.17867,-0.18555 m -19.11804,0.37109 -0.17868,0.18555 0.17868,-0.18555 m 19.29671,0 -0.17867,0.18555 0.17867,-0.18555 m -18.046,0.74219 -0.17867,0.18554 0.17867,-0.18554 m 18.40335,0 -0.17867,0.18554 0.17867,-0.18554 m -17.86733,0.37109 -0.17867,0.18554 0.17867,-0.18554 m 18.046,0 -0.17867,0.18554 0.17867,-0.18554 m -17.33131,0.37109 -0.17867,0.18555 0.17867,-0.18555 m 0.35735,0.18555 -0.17867,0.18554 0.17867,-0.18554 m 0.53602,0.37109 -0.17867,0.18555 0.17867,-0.18555 m 16.79529,0 -0.17868,0.18555 0.17868,-0.18555 m -16.43794,0.18555 -0.17868,0.18554 0.17868,-0.18554 m 0.35734,0.18554 -0.17867,0.18555 0.17867,-0.18555 m 16.19977,0.12376 -0.0597,0.12357 0.0597,-0.12357 m -15.84242,0.0618 -0.17867,0.18554 0.17867,-0.18554 m 16.08059,0.37109 -0.17867,0.18555 0.17867,-0.18555 m -14.47253,0.55664 -0.17867,0.18554 0.17867,-0.18554 m 0.35735,0.18554 -0.17868,0.18555 0.17868,-0.18555 m 14.47253,0 -0.17867,0.18555 0.17867,-0.18555 m -14.11519,0.18555 -0.17867,0.18555 0.17867,-0.18555 m 0.35735,0.18555 -0.17867,0.18554 0.17867,-0.18554 m 0.35735,0.18554 -0.17868,0.18555 0.17868,-0.18555 m 13.93651,0.74219 -0.17867,0.18554 0.17867,-0.18554 m -12.14978,0.18554 -0.17868,0.18555 0.17868,-0.18555 m 0.35734,0.18555 -0.17867,0.18554 0.17867,-0.18554 m 0.35735,0.18554 -0.17867,0.18555 0.17867,-0.18555 m 11.61376,0 -0.17867,0.18555 0.17867,-0.18555 m -11.25641,0.18555 -0.17868,0.18555 0.17868,-0.18555 m 0.35734,0.18555 -0.17867,0.18554 0.17867,-0.18554 m 11.07775,0 -0.17868,0.18554 0.17868,-0.18554 m -10.7204,0.18554 -0.17867,0.18555 0.17867,-0.18555 m 0.35735,0.18555 -0.17868,0.18555 0.17868,-0.18555 m 10.54172,0 -0.17867,0.18555 0.17867,-0.18555 m -9.64836,0.37109 -0.17867,0.18555 0.17867,-0.18555 m 0.35735,0.18555 -0.17867,0.18554 0.17867,-0.18554 m 9.46968,0 -0.17867,0.18554 0.17867,-0.18554 m -9.11233,0.18554 -0.17868,0.18555 0.17868,-0.18555 m 0.35734,0.18555 -0.17867,0.18555 0.17867,-0.18555 m 1.25072,0.55664 -0.17868,0.18554 0.17868,-0.18554 m 7.86162,0 -0.17867,0.18554 0.17867,-0.18554 m 18.046,0 0.17868,0.18554 -0.17868,-0.18554 m -25.55028,0.18554 -0.17867,0.18555 0.17867,-0.18555 m 0.35735,0.18555 -0.17867,0.18555 0.17867,-0.18555 m 0.53602,0.18555 -0.17867,0.18554 0.17867,-0.18554 m 0.35735,0.18554 -0.17868,0.18555 0.17868,-0.18555 m 1.78673,0.74219 -0.17867,0.18554 0.17867,-0.18554 m 5.00285,0 -0.17867,0.18554 0.17867,-0.18554 m -4.6455,0.18554 -0.17868,0.18555 0.17868,-0.18555 m 0.53602,0.18555 -0.17868,0.18554 0.17868,-0.18554 m 4.28815,0.18554 -0.17867,0.18555 0.17867,-0.18555 m -3.03744,0.3711 -0.17868,0.18554 0.17868,-0.18554 m 3.21612,0.18554 -0.17868,0.18555 0.17868,-0.18555 m -2.32276,0.18555 -0.17867,0.18554 0.17867,-0.18554 m 0.53602,0.18554 -0.17867,0.18555 0.17867,-0.18555 m 1.96541,0.18555 -0.17867,0.18555 0.17867,-0.18555 m -0.53602,0.43288 c 0.13812,0 0.0286,0.0924 -0.0595,0.062 l 0.0595,-0.062 m 0.53602,0.18555 c 0.13811,0 0.0286,0.0924 -0.0595,0.062 l 0.0595,-0.062 m 10.36305,0.68039 0.17867,0.18555 -0.17867,-0.18555 m -4.6455,2.59765 0.17867,0.18554 z"
         id="path17116" /><path
         style="display:inline;fill:#633999;fill-opacity:1;stroke-width:0.182077"
         d="m 65.952968,212.20381 c -1.068327,-5.35466 -2.109363,-10.50802 -2.313413,-11.45191 l -0.371001,-1.71616 -1.355094,-0.88148 c -0.745301,-0.48482 -1.512683,-0.98479 -1.705293,-1.11106 -0.192612,-0.12626 -0.591411,-0.36699 -0.886222,-0.53495 -0.712513,-0.40592 -3.199002,-2.19711 -4.171897,-3.0053 -0.63307,-0.5259 -0.810059,-0.59746 -0.954889,-0.3861 -0.142973,0.20866 -0.159497,0.19969 -0.08439,-0.0458 0.09069,-0.29641 -0.395956,-0.75326 -2.946125,-2.76572 -0.936858,-0.73932 -1.831214,-1.56869 -4.769062,-4.42255 -1.115012,-1.08313 -2.084034,-1.99166 -2.153385,-2.01894 -0.06935,-0.0273 -0.226636,0.57178 -0.349524,1.33126 -0.122888,0.75948 -0.261431,1.61676 -0.307872,1.90507 -0.04644,0.28831 -0.20437,1.19217 -0.35095,2.00857 -0.146582,0.8164 -0.351645,1.98534 -0.455701,2.59764 -0.104054,0.61231 -0.259376,1.48901 -0.345159,1.94824 -0.08578,0.45922 -0.332184,1.81824 -0.547555,3.02003 -0.215371,1.20179 -0.424842,2.15054 -0.465492,2.10833 -0.04065,-0.0422 0.207281,-1.69347 0.550955,-3.66945 1.354901,-7.79009 1.894007,-10.84569 1.980165,-11.22338 0.06805,-0.29834 -0.225023,-0.75108 -1.20324,-1.85878 -11.7699,-13.32777 -19.084003,-31.05501 -20.497656,-49.68029 -0.233295,-3.07373 -0.233198,-9.72032 1.9e-4,-12.92419 0.603855,-8.28955 2.572036,-17.09669 5.652719,-25.294591 1.011907,-2.692748 4.850736,-10.745712 5.698228,-11.953543 0.164511,-0.234459 8.93499,4.355741 12.945501,6.775281 16.128574,9.730361 31.090998,22.689753 48.476716,41.987083 19.713738,21.88133 33.743208,43.64961 40.763128,63.24854 0.88354,2.46677 2.41955,7.47569 2.41955,7.89016 0,0.1387 -0.14071,0.29689 -0.31268,0.35153 -0.17197,0.0546 -1.07651,0.45054 -2.01007,0.87977 -2.57021,1.18171 -7.09873,2.83742 -10.09504,3.69093 -20.03242,5.7063 -40.823515,3.48829 -59.494903,-6.34697 -1.472236,-0.77551 -2.68907,-1.39456 -2.704075,-1.37566 -0.01501,0.0189 0.969854,5.00235 2.188578,11.07434 1.218723,6.072 2.1937,11.16279 2.166615,11.3129 -0.02708,0.15009 -0.92333,-4.1082 -1.991657,-9.46286 z M 133.21323,197.13362 C 129.65887,186.3271 122.86904,173.18471 114.54453,160.99852 106.32659,148.96832 98.028712,138.86016 85.854928,126.04991 71.270571,110.70306 57.819194,99.643779 43.174437,90.959403 c -2.083688,-1.235632 -7.917524,-4.364866 -8.137426,-4.364866 -0.141495,0 0.961407,4.048439 1.887301,6.927741 5.470498,17.011922 15.481076,35.626282 28.005793,52.075912 2.548853,3.3476 5.554645,7.05075 5.722982,7.05075 0.223329,0 10.020316,-10.04333 10.020316,-10.27228 0,-0.1212 -0.595679,-0.83482 -1.32373,-1.58583 -2.087638,-2.15347 -2.321246,-3.17198 -1.127037,-4.91374 2.739063,-3.99495 2.753255,-4.01044 3.671425,-4.00809 0.684872,0.002 1.124418,0.3723 3.518665,2.96628 5.197666,5.63125 5.971925,6.47587 7.077834,7.721 1.907357,2.14747 1.812416,2.85982 -0.665082,4.99015 -1.809137,1.55562 -2.465041,1.94823 -3.254741,1.94823 -0.843547,0 -1.201694,-0.23482 -2.719393,-1.78295 l -1.343634,-1.37057 -3.212535,3.65581 c -1.766895,2.0107 -3.965121,4.47257 -4.884947,5.47083 l -1.672414,1.81501 0.900826,1.06929 c 2.347708,2.78677 9.658141,9.95922 13.972029,13.70831 10.072554,8.75381 21.186901,16.26974 31.282291,21.15422 4.37716,2.11782 12.0841,5.4219 12.70107,5.44514 0.0675,0.003 -0.10389,-0.68422 -0.3808,-1.52613 z m -95.784374,24.43024 c -0.01528,-0.46322 3.862643,-22.52725 3.959432,-22.52778 0.06179,-3.7e-4 0.04421,0.35424 -0.03907,0.78795 -0.184093,0.95879 -1.594077,9.10108 -2.305374,13.31294 -0.284363,1.68383 -0.645952,3.77122 -0.803527,4.63865 -0.157576,0.86743 -0.367819,2.076 -0.467208,2.68572 -0.163952,1.00579 -0.329911,1.53729 -0.344257,1.10252 z m 19.659673,-0.15024 c 0,-0.0401 0.12478,-0.12265 0.277291,-0.18343 0.159005,-0.0634 0.230724,-0.0323 0.168128,0.0729 -0.104928,0.1763 -0.445419,0.26076 -0.445419,0.11049 z m 6.446345,-1.14859 c 0.0086,-0.21616 0.05091,-0.26011 0.107947,-0.1121 0.05161,0.13394 0.04527,0.29398 -0.0141,0.35563 -0.05937,0.0617 -0.101601,-0.0479 -0.09384,-0.24353 z m -21.619467,-1.66991 c 0.0086,-0.21616 0.05091,-0.26012 0.107947,-0.11211 0.05161,0.13395 0.04527,0.29398 -0.0141,0.35564 -0.05937,0.0617 -0.101601,-0.048 -0.09384,-0.24353 z m 10.9743,-1.74723 c 0.06074,-0.10205 0.145883,-0.18555 0.189219,-0.18555 0.04333,0 0.07879,0.0835 0.07879,0.18555 0,0.10205 -0.08515,0.18554 -0.189218,0.18554 -0.10407,0 -0.139526,-0.0835 -0.07879,-0.18554 z m 11.181187,-1.22151 c 0.0086,-0.21616 0.05091,-0.26012 0.107947,-0.1121 0.05161,0.13394 0.04527,0.29397 -0.0141,0.35563 -0.05937,0.0616 -0.101601,-0.0479 -0.09384,-0.24353 z m -1.700016,-0.31725 c 0.0671,-0.18299 0.167004,-0.28597 0.222016,-0.22884 0.05501,0.0571 1.14e-4,0.20685 -0.121995,0.33271 -0.176461,0.18188 -0.196983,0.16057 -0.100021,-0.10387 z m -13.858666,-0.5132 c 0,-0.10807 0.0804,-0.14489 0.178673,-0.0818 0.09827,0.0631 0.178673,0.15149 0.178673,0.19649 0,0.045 -0.0804,0.0818 -0.178673,0.0818 -0.09827,0 -0.178673,-0.0884 -0.178673,-0.1965 z m 12.9653,-0.97117 c 0.0671,-0.18299 0.167004,-0.28597 0.222016,-0.22884 0.05501,0.0571 1.14e-4,0.20685 -0.121995,0.33271 -0.176461,0.18188 -0.196984,0.16057 -0.100021,-0.10387 z m -15.824073,-0.87334 c -0.161036,-0.10807 -0.183074,-0.181 -0.05521,-0.18271 0.117038,-0.001 0.262489,0.0807 0.323223,0.18271 0.137096,0.23036 0.07524,0.23036 -0.26801,0 z m -0.714693,-0.44401 c 0,-0.0401 0.12478,-0.12265 0.277291,-0.18343 0.159004,-0.0634 0.230724,-0.0323 0.168128,0.0729 -0.104928,0.1763 -0.445419,0.26077 -0.445419,0.1105 z m 18.369847,-0.61047 c 0.128979,-0.0536 0.283086,-0.047 0.342458,0.0146 0.05937,0.0617 -0.04616,0.10551 -0.234509,0.0975 -0.208145,-0.009 -0.250482,-0.0529 -0.107949,-0.1121 z m -12.294955,-1.71776 c 0,-0.096 0.07948,-0.22561 0.176627,-0.28796 0.101283,-0.065 0.131236,0.009 0.07022,0.1746 -0.11878,0.32144 -0.246848,0.38025 -0.246847,0.11336 z m -5.438048,-1.73526 c 0.0671,-0.18298 0.167004,-0.28596 0.222016,-0.22883 0.05501,0.0571 1.14e-4,0.20684 -0.121995,0.3327 -0.176461,0.18189 -0.196984,0.16058 -0.100021,-0.10387 z m 16.783801,-0.13115 c -0.06073,-0.10205 -0.02528,-0.18555 0.07879,-0.18555 0.10407,0 0.189218,0.0835 0.189218,0.18555 0,0.10205 -0.03546,0.18554 -0.07879,0.18554 -0.04334,0 -0.128484,-0.0835 -0.189219,-0.18554 z m -1.072039,-4.26756 c 0.06073,-0.10205 0.145883,-0.18555 0.189218,-0.18555 0.04334,0 0.07879,0.0835 0.07879,0.18555 0,0.10205 -0.08515,0.18554 -0.189218,0.18554 -0.10407,0 -0.139526,-0.0835 -0.07879,-0.18554 z m -7.772288,-10.00854 c 0,-0.096 0.07948,-0.22561 0.176627,-0.28796 0.101283,-0.065 0.131236,0.009 0.07022,0.1746 -0.118781,0.32144 -0.246848,0.38026 -0.246847,0.11336 z"
         id="path17118"
         clip-path="url(#clipPath12625)" /></g></g></svg>
